<svg width="18" height="18" viewBox="0 0 18 18" fill="none" xmlns="http://www.w3.org/2000/svg">
<path d="M3.99736 17.2688C3.77236 17.2688 3.54736 17.2125 3.35048 17.0719C2.98486 16.8188 2.78798 16.3688 2.87236 15.9188L3.63173 11.1375L0.341109 7.73438C0.0317339 7.425 -0.0807661 6.94688 0.0598589 6.525C0.200484 6.10313 0.537984 5.82188 0.959859 5.7375L5.54423 5.00625L7.59736 0.646875C7.79423 0.253125 8.18798 0 8.60986 0C9.05986 0 9.42548 0.253125 9.62236 0.646875L11.7317 4.97813L16.3161 5.70938C16.738 5.76563 17.0755 6.075 17.2161 6.49688C17.3567 6.91875 17.2442 7.39688 16.9349 7.70625L13.6161 11.1094L14.4036 15.9188C14.488 16.3688 14.2911 16.8188 13.9255 17.0719C13.588 17.325 13.138 17.3531 12.7442 17.1563L8.63798 14.9063L4.53173 17.1563C4.36298 17.2406 4.19423 17.2688 3.99736 17.2688ZM1.04423 7.05938L4.44736 10.5469C4.61611 10.7156 4.70048 10.9688 4.64423 11.2219L3.85673 16.0875C3.82861 16.2 3.91298 16.2563 3.94111 16.2844C3.99736 16.3406 4.05361 16.3125 4.08173 16.2844L8.30048 13.9781C8.52548 13.8656 8.77861 13.8656 9.00361 13.9781L13.2224 16.2563C13.2505 16.2563 13.2786 16.2844 13.363 16.2563C13.3911 16.2281 13.4474 16.1719 13.4474 16.0594L12.6599 11.1656C12.6317 10.9125 12.688 10.6875 12.8567 10.4906L16.2317 7.00313C16.3161 6.91875 16.288 6.83438 16.288 6.77813C16.288 6.75 16.2317 6.66563 16.1755 6.66563L11.4505 5.93438C11.1974 5.90625 11.0005 5.7375 10.888 5.5125L8.77861 1.06875C8.75048 0.984375 8.69423 0.984375 8.63798 0.984375C8.60986 0.984375 8.55361 1.0125 8.49736 1.06875L6.38798 5.54063C6.27548 5.76563 6.07861 5.93438 5.82548 5.9625L1.12861 6.72188C1.04423 6.72188 1.01611 6.80625 1.01611 6.83438C0.987984 6.8625 0.959859 6.975 1.04423 7.05938Z" fill="#FBBF24"/>
</svg>
