<svg width="115" height="24" viewBox="0 0 115 24" fill="none" xmlns="http://www.w3.org/2000/svg">
<path d="M23.072 0.535999L15.104 23H8.256L0.288 0.535999H6.112L11.68 17.496L17.28 0.535999H23.072ZM30.831 4.92V9.464H38.159V13.688H30.831V18.616H39.119V23H25.359V0.535999H39.119V4.92H30.831ZM62.7675 23H57.2955L48.1435 9.144V23H42.6715V0.535999H48.1435L57.2955 14.456V0.535999H62.7675V23ZM65.806 11.736C65.806 9.51733 66.286 7.544 67.246 5.816C68.206 4.06667 69.5393 2.712 71.246 1.752C72.974 0.770665 74.926 0.279999 77.102 0.279999C79.7687 0.279999 82.0513 0.983999 83.95 2.392C85.8487 3.8 87.118 5.72 87.758 8.152H81.742C81.294 7.21333 80.654 6.49867 79.822 6.008C79.0113 5.51733 78.0833 5.272 77.038 5.272C75.3527 5.272 73.9873 5.85867 72.942 7.032C71.8967 8.20533 71.374 9.77333 71.374 11.736C71.374 13.6987 71.8967 15.2667 72.942 16.44C73.9873 17.6133 75.3527 18.2 77.038 18.2C78.0833 18.2 79.0113 17.9547 79.822 17.464C80.654 16.9733 81.294 16.2587 81.742 15.32H87.758C87.118 17.752 85.8487 19.672 83.95 21.08C82.0513 22.4667 79.7687 23.16 77.102 23.16C74.926 23.16 72.974 22.68 71.246 21.72C69.5393 20.7387 68.206 19.384 67.246 17.656C66.286 15.928 65.806 13.9547 65.806 11.736ZM96.581 4.92V9.464H103.909V13.688H96.581V18.616H104.869V23H91.109V0.535999H104.869V4.92H96.581Z" fill="#F8F9FA"/>
<path d="M110.982 23.256C110.022 23.256 109.232 22.9787 108.614 22.424C108.016 21.848 107.718 21.144 107.718 20.312C107.718 19.4587 108.016 18.744 108.614 18.168C109.232 17.592 110.022 17.304 110.982 17.304C111.92 17.304 112.688 17.592 113.286 18.168C113.904 18.744 114.214 19.4587 114.214 20.312C114.214 21.144 113.904 21.848 113.286 22.424C112.688 22.9787 111.92 23.256 110.982 23.256Z" fill="#DDBEA9"/>
</svg>
